<svg xmlns="http://www.w3.org/2000/svg" width="348" height="20" viewBox="0 0 348 20" fill="none">
<path fill-rule="evenodd" clip-rule="evenodd" d="M163.654 9.78719L163.85 9.01616C164.6 8.78999 166.132 8.68718 166.42 9.49934C166.584 9.97224 166.111 11.9358 166.019 12.5115L165.289 12.5218C165.125 12.3162 165.258 12.6966 165.145 12.1928C164.446 12.8199 162.955 12.7171 163.068 11.4526C163.182 10.1984 164.271 10.3629 165.454 10.1779C165.433 9.37597 164.425 9.59186 163.644 9.77691L163.654 9.78719ZM169.154 9.66383C168.486 9.66383 168.383 9.5199 167.797 9.77691C167.869 10.5068 168.25 10.219 168.774 10.5685C169.771 11.2265 168.702 13.262 166.327 12.3881L166.461 11.648C167.129 11.7816 167.468 11.9152 167.982 11.6274C168.106 10.5891 166.266 11.2676 166.78 9.60215C167.057 8.69746 168.281 8.82083 169.288 8.91335L169.144 9.66383H169.154ZM158.915 8.09092L160.488 8.14232L160.653 10.6096L161.506 8.63578C161.794 7.92643 161.598 8.08064 163.408 8.1012L162.596 12.5115L161.711 12.5012L162.195 9.33485L160.889 12.5218L159.83 12.491C159.799 11.8741 159.748 9.70495 159.583 9.29373L159.049 12.5012L158.124 12.491L158.915 8.09092ZM173.914 17.4564L174.346 16.9424C173.483 16.8293 173.328 17.076 172.938 16.377L174.922 16.3564C175.045 16.1508 175.251 15.9555 175.354 15.719C173.092 15.5648 172.454 16.1405 172.095 15.1536H175.724L176.125 14.5265L171.642 14.5059L171.437 13.9816L176.269 13.9611C176.546 13.8069 176.546 13.6321 176.618 13.3134L172.043 13.3031C171.221 13.3134 171.169 13.4984 171.015 12.748H176.772L176.957 12.1106L175.271 12.09L175.189 12.5218L174.223 12.4807L174.829 8.89279L175.744 9.01616C175.744 9.03672 175.765 9.10868 175.765 9.13952C175.765 9.16009 175.775 9.19093 175.775 9.20121L175.826 9.38626C176.083 9.07784 176.248 8.85167 176.844 8.87223L176.536 9.70495C176.361 9.93112 175.847 9.67411 175.631 10.2909L176.639 10.3321C176.752 9.68439 176.875 9.48906 177.06 8.96476L177.07 8.65634L170.769 8.66662L170.748 8.89279C171.087 8.89279 171.077 8.83111 171.272 8.9956L171.18 9.60215C170.542 9.75635 170.563 9.37597 170.501 10.2087C170.594 10.3629 170.481 10.2807 170.676 10.3321L171.077 10.3423C171.725 8.23484 173.657 8.69746 174.099 9.35541C174.336 9.70495 174.572 10.8564 173.986 10.9489L172.023 10.9694C172.115 12.0078 173.308 11.7919 174.079 11.5349C174.048 11.9667 174.079 12.3162 173.678 12.4601C173.359 12.5732 172.691 12.5424 172.341 12.4601C171.478 12.2648 171.108 11.833 171.046 10.8975L170.676 10.8872C170.337 10.733 170.604 10.8872 170.429 10.4657C170.285 11.3293 169.895 11.8844 170.964 11.761C170.902 12.2751 170.974 12.4498 170.409 12.5115C168.764 12.7068 169.298 11.6068 169.566 10.1367C169.987 7.79278 169.658 8.08064 170.851 8.1012L176.978 8.11148L176.855 7.47409L170.933 7.45353L171.046 6.93951L176.649 6.90867C176.505 6.03483 176.474 6.25072 174.439 6.25072H171.334C171.55 5.50024 171.437 5.70585 173.452 5.70585H176.176L175.888 5.05818L171.94 5.0479L172.208 4.51332L175.508 4.49276C175.086 3.6292 175.107 3.87593 172.773 3.83481C173.071 3.09462 173.596 3.27966 174.511 3.27966C174.254 2.86845 174.069 2.89929 173.914 2.54975C173.534 2.35442 173.195 2.00489 172.814 1.7376C169.905 -0.318494 165.957 -0.534384 162.791 1.00768C159.943 2.38527 157.147 5.57221 157.178 9.98252C157.219 16.2844 162.75 20.8798 169.011 19.8106C171.951 19.3069 172.691 18.1144 173.904 17.4461L173.914 17.4564Z" fill="#E41D2C"/>
<path fill-rule="evenodd" clip-rule="evenodd" d="M180.627 8.98711C183.814 8.33944 183.29 9.91235 183.033 11.1871C182.951 11.5675 182.951 12.318 182.653 12.5236C182.581 12.5236 182.159 12.5339 182.118 12.5133C181.83 12.4002 181.964 12.7395 181.923 12.2152C181.059 12.7086 179.692 12.8217 179.856 11.4441C179.99 10.3441 181.1 10.1694 182.231 10.2208C182.19 9.40861 181.45 9.54226 180.422 9.79927L180.638 8.98711H180.627ZM183.773 8.89459L184.627 8.90487C184.637 8.92543 184.647 8.95627 184.647 8.97683L184.781 9.35721C184.935 9.12076 185.223 8.91515 185.675 8.90487L185.552 9.63478L185.13 9.79927C184.287 10.0768 184.339 11.1357 184.113 12.5236H183.156L183.773 8.89459ZM188.307 8.11327H189.181L188.43 12.5339C187.454 12.5442 187.69 12.5956 187.382 12.2255C186.744 13.1713 184.832 12.2974 185.418 10.3441C185.85 8.88431 187.31 8.49365 188.029 9.35721L188.317 8.10299L188.307 8.11327ZM173.925 2.56182C174.079 2.91136 174.274 2.88052 174.521 3.29174C173.606 3.29174 173.082 3.09641 172.783 3.84688C175.117 3.888 175.097 3.64127 175.518 4.50483L172.218 4.52539L171.951 5.05998L175.898 5.07026L176.186 5.71793H173.462C171.457 5.71793 171.56 5.5226 171.344 6.26279H174.449C176.484 6.26279 176.515 6.0469 176.659 6.92074L171.056 6.95158L170.943 7.4656L176.865 7.48616L176.988 8.12355L170.861 8.11327L170.779 8.68898L177.081 8.6787L177.07 8.98711C177.543 8.53477 177.461 8.29832 178.345 8.04131C179.075 7.8357 179.538 7.98991 180.257 8.14411L180.103 9.08992C178.87 8.71982 178.068 8.81234 177.78 10.0871C177.461 11.4544 178.541 11.9684 179.682 11.4236C179.579 12.4208 179.414 12.6675 178.242 12.5133C177.43 12.4105 177.184 12.0198 176.824 11.5367H175.354L175.271 12.1021L176.957 12.1227L176.772 12.76H171.015C171.169 13.5105 171.221 13.3255 172.043 13.3152L176.618 13.3255C176.536 13.6339 176.546 13.8189 176.269 13.9731L171.437 13.9937L171.642 14.518L176.125 14.5386L175.724 15.1657H172.095C172.455 16.1423 173.092 15.5769 175.354 15.7311C175.251 15.9675 175.045 16.1629 174.922 16.3685L172.938 16.389C173.318 17.0778 173.483 16.8414 174.346 16.9545L173.914 17.4685C175.384 18.5479 176.526 19.4526 178.9 19.8638C181.059 20.2339 183.311 19.8227 185.048 18.9694C192.573 15.2582 192.368 4.56651 184.986 1.03004C182.334 -0.234461 178.818 -0.347546 176.073 1.09172C174.747 1.78051 174.428 2.27397 173.935 2.5721L173.925 2.56182Z" fill="#F8B02B"/>
<path fill-rule="evenodd" clip-rule="evenodd" d="M158.123 12.5027L159.048 12.513L159.583 9.3054C159.747 9.71662 159.799 11.8859 159.83 12.5027L160.889 12.5335L162.194 9.34652L161.711 12.513L162.595 12.5233L163.407 8.11283C161.598 8.09227 161.793 7.93806 161.505 8.64743L160.652 10.6213L160.488 8.15395L158.915 8.10255L158.123 12.5027ZM186.765 11.6905C185.994 10.8989 186.652 9.58297 187.372 9.75775C188.081 9.93252 187.947 11.67 186.765 11.6905ZM188.019 9.3568C187.3 8.49322 185.85 8.88389 185.408 10.3437C184.822 12.2868 186.734 13.1709 187.372 12.2251C187.68 12.5952 187.444 12.5335 188.42 12.5335L189.171 8.11283H188.297L188.009 9.36708L188.019 9.3568ZM180.957 11.7008C180.813 11.012 181.45 10.7447 182.057 10.8681C182.087 11.5672 181.594 11.9475 180.957 11.7008ZM180.628 8.99697L180.412 9.80915C181.44 9.56241 182.19 9.42876 182.221 10.2307C181.09 10.1793 179.98 10.354 179.846 11.4541C179.671 12.8317 181.049 12.7186 181.913 12.2251C181.954 12.7494 181.82 12.4102 182.108 12.5233C182.149 12.5438 182.571 12.5335 182.643 12.5335C182.951 12.3382 182.951 11.5774 183.023 11.197C183.29 9.91196 183.804 8.34929 180.617 8.99697H180.628ZM165.289 10.8372C165.309 11.1868 165.248 11.4541 165.021 11.6288C164.867 11.7419 164.405 11.8756 164.22 11.7008C163.644 11.1765 164.723 10.8269 165.278 10.8372H165.289ZM163.654 9.78859C164.435 9.60354 165.443 9.38764 165.463 10.1895C164.281 10.3746 163.191 10.2101 163.078 11.4643C162.955 12.7289 164.446 12.8317 165.155 12.2046C165.268 12.7083 165.135 12.3279 165.299 12.5335L166.029 12.5233C166.121 11.9373 166.594 9.98392 166.43 9.51101C166.142 8.68855 164.62 8.79136 163.86 9.02782L163.664 9.79887L163.654 9.78859ZM172.177 10.3026C172.31 9.77831 172.537 9.56241 173.143 9.64466C173.359 9.95308 173.359 9.86055 173.4 10.3026H172.177ZM171.087 10.354L171.046 10.9092C171.108 11.8447 171.488 12.2662 172.341 12.4719C172.691 12.5541 173.359 12.5849 173.678 12.4719C174.079 12.3382 174.048 11.9784 174.079 11.5466C173.308 11.8036 172.115 12.0195 172.023 10.9812L173.986 10.9606C174.572 10.8681 174.336 9.7269 174.099 9.36708C173.657 8.70911 171.724 8.24648 171.077 10.354H171.087ZM177.07 8.98669C176.885 9.51101 176.762 9.70634 176.649 10.354V10.9195L176.824 11.5466C177.184 12.0298 177.43 12.4205 178.242 12.5233C179.414 12.6775 179.579 12.4307 179.682 11.4335C178.53 11.9784 177.461 11.4643 177.78 10.097C178.078 8.81192 178.88 8.72967 180.103 9.09978L180.257 8.15395C179.538 8.01002 179.075 7.85581 178.345 8.05115C177.461 8.29788 177.543 8.54462 177.07 8.99697V8.98669ZM169.288 8.91473C168.28 8.83248 167.057 8.69883 166.779 9.60354C166.265 11.269 168.095 10.5905 167.982 11.6288C167.458 11.9167 167.129 11.783 166.461 11.6494L166.327 12.3896C168.702 13.2635 169.761 11.2382 168.774 10.5699C168.25 10.2204 167.869 10.5185 167.797 9.77831C168.383 9.51101 168.476 9.66522 169.154 9.66522L169.298 8.91473H169.288Z" fill="#FEFEFE"/>
<path fill-rule="evenodd" clip-rule="evenodd" d="M170.44 10.4778L170.512 10.2311C170.573 9.39838 170.553 9.77875 171.19 9.62455L171.283 9.018C171.087 8.85351 171.098 8.91519 170.758 8.91519L170.779 8.68902L170.861 8.11332C169.669 8.09276 169.998 7.8049 169.576 10.1488C169.309 11.619 168.774 12.719 170.419 12.5236C170.974 12.462 170.912 12.2872 170.974 11.7732C169.915 11.8965 170.306 11.3414 170.44 10.4778ZM175.271 12.1124L175.354 11.547L175.456 10.9302L175.642 10.3133C175.868 9.69651 176.382 9.95352 176.546 9.72735L176.855 8.89463C176.248 8.87407 176.084 9.10024 175.837 9.40866L175.785 9.22361C175.785 9.21333 175.775 9.18249 175.775 9.16192C175.775 9.14136 175.755 9.05912 175.755 9.03856L174.84 8.91519L174.233 12.5031L175.199 12.5442L175.282 12.1124H175.271ZM183.157 12.5236H184.113C184.339 11.1358 184.287 10.0769 185.13 9.79931L185.552 9.63483L185.675 8.90491C185.223 8.91519 184.935 9.1208 184.781 9.35725L184.647 8.97688C184.637 8.95632 184.637 8.92547 184.627 8.90491L183.773 8.89463L183.157 12.5236Z" fill="#FEFEFE"/>
<path fill-rule="evenodd" clip-rule="evenodd" d="M186.763 11.6849C187.956 11.6643 188.09 9.9269 187.37 9.75213C186.64 9.57736 185.992 10.8933 186.763 11.6849Z" fill="#F8B02B"/>
<path fill-rule="evenodd" clip-rule="evenodd" d="M165.289 10.8342C164.734 10.8239 163.654 11.1735 164.23 11.6978C164.415 11.8622 164.878 11.7286 165.032 11.6258C165.258 11.4613 165.31 11.1837 165.299 10.8342H165.289ZM175.354 11.5333L176.824 11.5436L176.649 10.9164H175.456L175.354 11.5333Z" fill="#E41D2C"/>
<path fill-rule="evenodd" clip-rule="evenodd" d="M180.957 11.7009C181.604 11.9373 182.087 11.5672 182.057 10.8682C181.44 10.7551 180.813 11.0224 180.957 11.7009ZM175.457 10.9196H176.649V10.3541L175.642 10.3027L175.457 10.9196Z" fill="#F8B02B"/>
<path fill-rule="evenodd" clip-rule="evenodd" d="M172.177 10.3019H173.4C173.37 9.87011 173.359 9.95236 173.143 9.64394C172.537 9.5617 172.311 9.77759 172.177 10.3019Z" fill="#E41D2C"/>
<path fill-rule="evenodd" clip-rule="evenodd" d="M170.439 10.4797C170.614 10.9012 170.347 10.747 170.686 10.9012L171.056 10.9114L171.097 10.3563L170.696 10.346C170.491 10.3049 170.604 10.3769 170.522 10.2227L170.45 10.4694L170.439 10.4797Z" fill="#F8B02B"/>
<path fill-rule="evenodd" clip-rule="evenodd" d="M126.625 13.3144C126.635 10.6609 124.442 9.51518 122.739 8.62497C121.661 8.06202 120.78 7.6016 120.78 6.92717C120.78 6.35233 121.337 5.7437 122.525 5.58654C123.936 5.44728 125.361 5.69391 126.642 6.30065L127.375 2.81959C126.126 2.35213 124.802 2.11045 123.467 2.10547C119.349 2.10547 116.487 4.29854 116.487 7.43149C116.487 9.74686 118.564 11.0349 120.134 11.8006C121.705 12.5665 122.315 13.1056 122.297 13.8018C122.297 14.881 121.007 15.3682 119.803 15.3861C118.317 15.4051 116.852 15.046 115.545 14.3418L114.794 17.8229C116.273 18.3988 117.849 18.6882 119.436 18.6753C123.815 18.6753 126.695 16.517 126.712 13.1752L126.625 13.3144ZM115.301 2.38495L111.811 18.4843H107.624L111.113 2.38495H115.301ZM132.854 12.8271L135.052 6.78802L136.327 12.8271H132.854ZM141.387 18.537H137.513L137.007 16.1351H131.755L130.9 18.537H126.503L132.767 3.62023C133.055 2.91009 133.743 2.44363 134.512 2.43667H138.002L141.387 18.537ZM102.65 18.4316L109.421 2.33224H104.884L100.54 13.2796L98.7943 3.96833C98.6395 3.02148 97.8185 2.32826 96.8574 2.33224H89.7564L89.6511 2.80168C91.0753 3.08016 92.4595 3.53569 93.769 4.15928C94.3269 4.42086 94.7048 4.95696 94.7637 5.5696L98.0964 18.4316H102.65Z" fill="#212B36"/>
<path fill-rule="evenodd" clip-rule="evenodd" d="M6.44483 5.26562H11.4921C14.202 5.26562 15.2222 6.63753 15.0645 8.65305C14.804 11.9805 12.7923 13.8215 10.1241 13.8215H8.77694C8.41084 13.8215 8.1646 14.0638 8.06558 14.7205L7.49363 18.5378C7.45584 18.7854 7.32556 18.9287 7.13013 18.9482H3.95897C3.66062 18.9482 3.55509 18.7202 3.63326 18.2264L5.5667 5.98871C5.64227 5.49884 5.91065 5.26562 6.44483 5.26562Z" fill="#009EE3"/>
<path fill-rule="evenodd" clip-rule="evenodd" d="M28.3578 5.03906C30.0606 5.03906 31.6319 5.96279 31.4169 8.26494C31.1564 11.0009 29.6906 12.5149 27.3781 12.5214H25.3573C25.0668 12.5214 24.9261 12.7585 24.8505 13.2445L24.4597 15.729C24.401 16.1042 24.2082 16.2892 23.9242 16.2892H22.0442C21.7445 16.2892 21.6403 16.0977 21.7067 15.6691L23.2584 5.71134C23.3353 5.22146 23.519 5.03906 23.8538 5.03906H28.3539H28.3578ZM25.2961 10.3704H26.827C27.7846 10.3339 28.4203 9.67072 28.4842 8.4747C28.5233 7.73598 28.0243 7.20701 27.2308 7.21092L25.7899 7.21744L25.2961 10.3704ZM36.528 15.5271C36.7 15.3707 36.8746 15.2899 36.8498 15.4828L36.7886 15.944C36.7573 16.185 36.8524 16.3127 37.0765 16.3127H38.7468C39.0282 16.3127 39.165 16.1993 39.2341 15.7642L40.2633 9.30461C40.3154 8.9802 40.236 8.82126 39.9897 8.82126H38.1527C37.9872 8.82126 37.9065 8.91376 37.8635 9.16651L37.7957 9.56388C37.7605 9.77104 37.6654 9.80752 37.5768 9.59906C37.2655 8.86164 36.4707 8.53072 35.362 8.55678C32.7862 8.61019 31.0495 10.5658 30.8632 13.0725C30.7199 15.0111 32.1087 16.5342 33.9406 16.5342C35.2695 16.5342 35.8636 16.1433 36.5332 15.531L36.528 15.5271ZM35.1288 14.533C34.02 14.533 33.2474 13.6483 33.4077 12.5644C33.5679 11.4804 34.605 10.5957 35.7137 10.5957C36.8225 10.5957 37.5951 11.4804 37.4348 12.5644C37.2746 13.6483 36.2388 14.533 35.1288 14.533ZM43.5322 8.80041H41.8385C41.4893 8.80041 41.3473 9.06098 41.458 9.38148L43.5609 15.5388L41.4984 18.4689C41.3252 18.7138 41.4594 18.9366 41.703 18.9366H43.6065C43.7174 18.9495 43.8297 18.9301 43.9299 18.8809C44.0302 18.8317 44.1142 18.7547 44.1719 18.6591L50.6393 9.38279C50.8386 9.09746 50.7448 8.79781 50.4178 8.79781H48.616C48.3072 8.79781 48.1834 8.92027 48.0062 9.17694L45.3093 13.0855L44.1042 9.16782C44.0338 8.9307 43.8579 8.80041 43.5335 8.80041H43.5322Z" fill="#113984"/>
<path fill-rule="evenodd" clip-rule="evenodd" d="M57.368 5.03776C59.0708 5.03776 60.6421 5.96149 60.4271 8.26364C60.1665 10.9996 58.7008 12.5136 56.3882 12.5201H54.3688C54.0783 12.5201 53.9376 12.7572 53.862 13.2432L53.4711 15.7277C53.4125 16.1029 53.2197 16.2879 52.9357 16.2879H51.0556C50.756 16.2879 50.6518 16.0964 50.7182 15.6678L52.2725 5.70743C52.3494 5.21756 52.5331 5.03516 52.8679 5.03516H57.368V5.03776ZM54.3063 10.3691H55.8371C56.7947 10.3326 57.4305 9.66942 57.4944 8.4734C57.5335 7.73468 57.0345 7.20572 56.241 7.20962L54.8001 7.21614L54.3063 10.3691ZM65.5382 15.5258C65.7102 15.3694 65.8848 15.2886 65.86 15.4815L65.7988 15.9427C65.7675 16.1837 65.8626 16.3114 66.0867 16.3114H67.757C68.0384 16.3114 68.1752 16.198 68.2443 15.7629L69.2735 9.30332C69.3256 8.9789 69.2462 8.81996 68.9999 8.81996H67.1655C67 8.81996 66.9193 8.91246 66.8763 9.16521L66.8085 9.56258C66.7733 9.76974 66.6782 9.80622 66.5896 9.59776C66.2782 8.86035 65.4835 8.52942 64.3748 8.55548C61.799 8.6089 60.0623 10.5645 59.876 13.0712C59.7327 15.0098 61.1215 16.5329 62.9533 16.5329C64.2823 16.5329 64.8764 16.142 65.546 15.5297L65.5382 15.5258ZM64.1403 14.5317C63.0315 14.5317 62.2589 13.647 62.4192 12.5631C62.5794 11.4791 63.6165 10.5944 64.7252 10.5944C65.834 10.5944 66.6066 11.4791 66.4463 12.5631C66.2861 13.647 65.249 14.5317 64.1403 14.5317ZM71.844 16.3218H69.9158C69.8823 16.3233 69.8488 16.3174 69.8178 16.3045C69.7869 16.2915 69.7591 16.2719 69.7366 16.247C69.7141 16.2221 69.6973 16.1926 69.6875 16.1605C69.6777 16.1283 69.6752 16.0945 69.68 16.0612L71.3737 5.33091C71.3899 5.25768 71.4304 5.19207 71.4886 5.14476C71.5467 5.09745 71.6192 5.07122 71.6942 5.07034H73.6225C73.656 5.06884 73.6894 5.07476 73.7204 5.08769C73.7514 5.10061 73.7792 5.12022 73.8017 5.14512C73.8242 5.17001 73.841 5.19957 73.8508 5.23169C73.8605 5.2638 73.8631 5.29768 73.8583 5.33091L72.1646 16.0612C72.1489 16.1349 72.1087 16.2012 72.0504 16.249C71.9922 16.2968 71.9194 16.3234 71.844 16.3244V16.3218Z" fill="#009EE3"/>
<path fill-rule="evenodd" clip-rule="evenodd" d="M3.28819 1.05273H8.34066C9.76338 1.05273 11.4519 1.09833 12.5802 2.09502C13.3345 2.76078 13.7306 3.82 13.6394 4.9613C13.3293 8.81906 11.0219 10.9805 7.92635 10.9805H5.43529C5.01056 10.9805 4.73045 11.2619 4.61059 12.0228L3.91486 16.4525C3.86926 16.7391 3.74549 16.9085 3.524 16.9293H0.406272C0.0610153 16.9293 -0.0614543 16.6688 0.0284427 16.0929L2.26935 1.89438C2.35925 1.32373 2.67324 1.05273 3.28819 1.05273Z" fill="#113984"/>
<path fill-rule="evenodd" clip-rule="evenodd" d="M4.68311 11.5734L5.56514 5.98806C5.64201 5.49819 5.9104 5.26367 6.44457 5.26367H11.4918C12.327 5.26367 13.0032 5.39396 13.5321 5.63499C13.0253 9.06932 10.8039 10.9767 7.89595 10.9767H5.4088C5.07527 10.978 4.83033 11.1448 4.68311 11.5734Z" fill="#172C70"/>
<path d="M210.81 5.46564H212.608L211.709 3.17773L210.81 5.46564Z" fill="#2FABF7"/>
<path d="M233.118 3.50359C232.954 3.42188 232.709 3.42188 232.464 3.42188H230.83V4.72925H232.464C232.709 4.72925 232.954 4.72925 233.118 4.64754C233.281 4.56583 233.363 4.3207 233.363 4.07556C233.445 3.74872 233.281 3.5853 233.118 3.50359Z" fill="#228FE0"/>
<path d="M250.603 1.05273V2.03327L250.113 1.05273H246.273V2.03327L245.782 1.05273H240.553C239.654 1.05273 238.919 1.21616 238.265 1.543V1.05273H234.588V1.543C234.179 1.21616 233.689 1.05273 233.036 1.05273H219.88L218.981 3.09551L218.082 1.05273H213.915V2.03327L213.425 1.05273H209.911L208.277 4.89316L206.398 9.14213H210.565L211.055 7.83476H212.199L212.689 9.14213H217.429V8.1616L217.837 9.14213H220.207L220.615 8.1616V9.14213H231.973V7.01764H232.137C232.3 7.01764 232.3 7.01765 232.3 7.26278V9.06042H238.183V8.57016C238.674 8.81529 239.409 9.06042 240.39 9.06042H242.841L243.331 7.75304H244.475L244.965 9.06042H249.705V7.83476L250.44 9.06042H254.28V1.05273H250.603ZM222.985 7.91647H221.596V3.42236L219.635 7.91647H218.409L216.448 3.42236V7.91647H213.67L213.098 6.6908H210.32L209.83 7.99818H208.277L210.728 2.19669H212.771L215.059 7.67133V2.19669H217.265L219.063 6.11882L220.697 2.19669H222.985V7.91647ZM228.541 3.42236H225.355V4.4846H228.46V5.62856H225.355V6.77251H228.541V7.99818H223.966V2.19669H228.541V3.42236ZM234.67 5.79198C234.833 6.11882 234.915 6.36396 234.915 6.85422V7.99818H233.526V7.26278C233.526 6.93593 233.526 6.44567 233.281 6.11882C233.036 5.87369 232.79 5.87369 232.3 5.87369H230.829V7.99818H229.44V2.19669H232.545C233.281 2.19669 233.771 2.19669 234.179 2.44182C234.588 2.68696 234.833 3.09551 234.833 3.7492C234.833 4.64802 234.261 5.13829 233.853 5.30171C234.261 5.38342 234.506 5.62856 234.67 5.79198ZM237.121 7.91647H235.732V2.11498H237.121V7.91647ZM253.218 7.91647H251.257L248.642 3.58578V7.91647H245.864L245.374 6.6908H242.514L242.024 7.99818H240.471C239.818 7.99818 239 7.83476 238.51 7.34449C238.02 6.85422 237.775 6.20053 237.775 5.13829C237.775 4.32118 237.938 3.50407 238.51 2.85038C238.919 2.36011 239.654 2.19669 240.553 2.19669H241.86V3.42236H240.553C240.063 3.42236 239.818 3.50407 239.491 3.7492C239.246 3.99433 239.082 4.4846 239.082 5.05658C239.082 5.71027 239.164 6.11882 239.491 6.44567C239.736 6.6908 240.063 6.77251 240.471 6.77251H241.043L242.923 2.2784H244.965L247.253 7.75304V2.2784H249.296L251.666 6.28225V2.2784H253.055V7.91647H253.218Z" fill="#0571C1"/>
<path d="M243.005 5.46564H244.884L243.985 3.17773L243.005 5.46564ZM229.114 17.232V12.5745L226.989 14.8624L229.114 17.232Z" fill="#228FE0"/>
<path d="M220.371 13.1465V14.2087H223.394V15.3527H220.371V16.5784H223.721L225.274 14.8624L223.803 13.1465H220.371Z" fill="#2FABF7"/>
<path d="M232.219 13.1465H230.503V14.6173H232.301C232.791 14.6173 233.118 14.3722 233.118 13.8819C233.036 13.3916 232.709 13.1465 232.219 13.1465Z" fill="#228FE0"/>
<path d="M257.467 14.5364V10.8594H254.035C253.3 10.8594 252.728 11.0228 252.319 11.3496V10.8594H248.561C247.989 10.8594 247.253 11.0228 246.926 11.3496V10.8594H240.308V11.3496C239.818 10.9411 238.919 10.8594 238.51 10.8594H234.098V11.3496C233.689 10.9411 232.709 10.8594 232.218 10.8594H227.316L226.172 12.085L225.11 10.8594H217.756V18.8671H224.946L226.09 17.6414L227.152 18.8671H231.565V16.9877H232.137C232.709 16.9877 233.444 16.9877 234.016 16.7426V18.9488H237.693V16.8243H237.857C238.102 16.8243 238.102 16.8243 238.102 17.0694V18.9488H249.214C249.95 18.9488 250.685 18.7854 251.094 18.4585V18.9488H254.607C255.343 18.9488 256.078 18.8671 256.568 18.5402C257.385 18.05 257.876 17.1511 257.876 16.0889C257.876 15.5169 257.712 14.9449 257.467 14.5364ZM232.137 15.8438H230.503V17.8048H227.888L226.254 15.9255L224.538 17.8048H219.145V12.0033H224.619L226.254 13.8827L227.97 12.0033H232.3C233.362 12.0033 234.588 12.3302 234.588 13.8827C234.506 15.5169 233.362 15.8438 232.137 15.8438ZM240.308 15.5169C240.471 15.762 240.553 16.0889 240.553 16.5792V17.7231H239.164V16.9877C239.164 16.6609 239.164 16.0889 238.919 15.8438C238.755 15.5986 238.429 15.5986 237.938 15.5986H236.467V17.7231H235.078V11.9216H238.183C238.837 11.9216 239.409 11.9216 239.818 12.1668C240.226 12.4119 240.553 12.8204 240.553 13.4741C240.553 14.373 239.981 14.8632 239.572 15.0266C239.981 15.1901 240.226 15.3535 240.308 15.5169ZM245.946 13.1473H242.759V14.2095H245.864V15.3535H242.759V16.4974H245.946V17.7231H241.37V11.9216H245.946V13.1473ZM249.378 17.7231H246.763V16.4974H249.378C249.623 16.4974 249.786 16.4974 249.95 16.334C250.031 16.2523 250.113 16.0889 250.113 15.9255C250.113 15.762 250.031 15.5986 249.95 15.5169C249.868 15.4352 249.705 15.3535 249.46 15.3535C248.152 15.2718 246.6 15.3535 246.6 13.5558C246.6 12.7387 247.09 11.8399 248.561 11.8399H251.257V13.229H248.724C248.479 13.229 248.316 13.229 248.152 13.3107C247.989 13.3924 247.989 13.5558 247.989 13.7193C247.989 13.9644 248.152 14.0461 248.316 14.1278C248.479 14.2095 248.642 14.2095 248.806 14.2095H249.541C250.277 14.2095 250.767 14.373 251.094 14.6998C251.339 14.9449 251.502 15.3535 251.502 15.9255C251.502 17.1511 250.767 17.7231 249.378 17.7231ZM256.405 17.1511C256.078 17.478 255.506 17.7231 254.689 17.7231H252.074V16.4974H254.689C254.934 16.4974 255.098 16.4974 255.261 16.334C255.343 16.2523 255.424 16.0889 255.424 15.9255C255.424 15.762 255.343 15.5986 255.261 15.5169C255.179 15.4352 255.016 15.3535 254.771 15.3535C253.463 15.2718 251.911 15.3535 251.911 13.5558C251.911 12.7387 252.401 11.8399 253.872 11.8399H256.568V13.229H254.117C253.872 13.229 253.708 13.229 253.545 13.3107C253.382 13.3924 253.382 13.5558 253.382 13.7193C253.382 13.9644 253.463 14.0461 253.708 14.1278C253.872 14.2095 254.035 14.2095 254.199 14.2095H254.934C255.67 14.2095 256.16 14.373 256.487 14.6998C256.568 14.6998 256.568 14.7815 256.568 14.7815C256.814 15.1084 256.895 15.5169 256.895 15.9255C256.895 16.4157 256.732 16.8243 256.405 17.1511Z" fill="#0571C1"/>
<path d="M238.837 13.3099C238.674 13.2282 238.429 13.2282 238.184 13.2282H236.549V14.5356H238.184C238.429 14.5356 238.674 14.5356 238.837 14.4539C239.001 14.3722 239.083 14.127 239.083 13.8819C239.164 13.555 239.001 13.3916 238.837 13.3099ZM233.118 3.50458C232.954 3.42287 232.709 3.42287 232.464 3.42287H230.83V4.73024H232.464C232.709 4.73024 232.954 4.73024 233.118 4.64853C233.281 4.56682 233.363 4.32169 233.363 4.07656C233.444 3.74971 233.281 3.58629 233.118 3.50458ZM243.005 5.46564H244.884L243.985 3.17773L243.005 5.46564ZM229.114 17.232V12.5745L226.989 14.8624L229.114 17.232ZM232.219 13.1465H230.503V14.6173H232.3C232.791 14.6173 233.118 14.3722 233.118 13.8819C233.036 13.3916 232.709 13.1465 232.219 13.1465Z" fill="#228FE0"/>
<path d="M238.838 13.3102C238.674 13.2285 238.429 13.2285 238.184 13.2285H236.55V14.5359H238.184C238.429 14.5359 238.674 14.5359 238.838 14.4542C239.001 14.3725 239.083 14.1273 239.083 13.8822C239.165 13.5554 239.001 13.3919 238.838 13.3102Z" fill="#228FE0"/>
<path d="M231.647 17.5597L230.503 16.334V17.7231H227.806L226.172 15.8438L224.374 17.7231H218.981V12.0033H224.456L226.172 13.8827L226.989 12.9022L224.946 10.8594H217.756V18.8671H224.946L226.172 17.6414L227.234 18.8671H231.647V17.5597Z" fill="#2FABF7"/>
<path d="M223.148 9.06042L222.086 7.91647H221.596V7.4262L220.37 6.20053L219.553 7.91647H218.409L216.448 3.42236V7.91647H213.67L213.098 6.6908H210.32L209.748 7.91647H208.277L210.728 2.19669H212.771L215.059 7.67133V2.19669H216.285L215.141 1.05273H213.915V2.03327L213.507 1.05273H209.911L208.277 4.89316L206.398 9.06042H210.647L211.137 7.83476H212.281L212.853 9.06042H217.429V8.07989L217.837 9.06042H220.207L220.615 8.07989V9.06042H223.148Z" fill="#2FABF7"/>
<path d="M219.39 5.30152L218.083 3.99414L219.063 6.11863L219.39 5.30152Z" fill="#2FABF7"/>
<path d="M256.569 18.4576C257.304 17.9673 257.794 17.1502 257.876 16.2513L256.732 15.1074C256.814 15.3525 256.896 15.5977 256.896 15.9245C256.896 16.4148 256.732 16.8233 256.405 17.1502C256.079 17.477 255.507 17.7221 254.689 17.7221H252.075V16.4965H254.689C254.935 16.4965 255.098 16.4965 255.261 16.3331C255.343 16.2513 255.425 16.0879 255.425 15.9245C255.425 15.7611 255.343 15.5977 255.261 15.5159C255.18 15.4342 255.016 15.3525 254.771 15.3525C253.464 15.2708 251.911 15.3525 251.911 13.5549C251.911 12.7378 252.402 12.0024 253.627 11.8389L252.728 10.9401C252.565 11.0218 252.483 11.1035 252.402 11.1035V10.6133H248.643C248.071 10.6133 247.335 10.7767 247.009 11.1035V10.6133H240.308V11.1035C239.818 10.695 238.919 10.6133 238.511 10.6133H234.098V11.1035C233.69 10.695 232.709 10.6133 232.219 10.6133H227.316L226.172 11.8389L225.11 10.6133H224.211L226.663 13.0646L227.888 11.7572H232.219C233.281 11.7572 234.507 12.0841 234.507 13.6366C234.507 15.2708 233.363 15.5977 232.137 15.5977H230.503V16.8233L231.729 18.049V16.8233H232.137C232.709 16.8233 233.445 16.8233 234.017 16.5782V18.7844H237.694V16.6599H237.857C238.102 16.6599 238.102 16.6599 238.102 16.905V18.7844H249.215C249.95 18.7844 250.686 18.621 251.094 18.2941V18.7844H254.608C255.261 18.8661 255.997 18.7844 256.569 18.4576ZM240.308 15.5159C240.472 15.7611 240.553 16.0879 240.553 16.5782V17.7221H239.164V16.9867C239.164 16.6599 239.164 16.0879 238.919 15.8428C238.756 15.5977 238.429 15.5977 237.939 15.5977H236.468V17.7221H235.079V11.9207H238.184C238.837 11.9207 239.409 11.9207 239.818 12.1658C240.227 12.4109 240.553 12.8195 240.553 13.4732C240.553 14.372 239.981 14.8623 239.573 15.0257C239.981 15.1891 240.227 15.3525 240.308 15.5159ZM245.946 13.1463H242.76V14.2086H245.865V15.3525H242.76V16.4965H245.946V17.7221H241.371V11.9207H245.946V13.1463ZM249.378 17.7221H246.763V16.4965H249.378C249.623 16.4965 249.787 16.4965 249.95 16.3331C250.032 16.2513 250.114 16.0879 250.114 15.9245C250.114 15.7611 250.032 15.5977 249.95 15.5159C249.868 15.4342 249.705 15.3525 249.46 15.3525C248.153 15.2708 246.6 15.3525 246.6 13.5549C246.6 12.7378 247.09 11.8389 248.561 11.8389H251.258V13.228H248.725C248.479 13.228 248.316 13.228 248.153 13.3097C247.989 13.3915 247.989 13.5549 247.989 13.7183C247.989 13.9634 248.153 14.0451 248.316 14.1269C248.479 14.2086 248.643 14.2086 248.806 14.2086H249.542C250.277 14.2086 250.767 14.372 251.094 14.6988C251.339 14.944 251.503 15.3525 251.503 15.9245C251.503 17.1502 250.767 17.7221 249.378 17.7221Z" fill="#228FE0"/>
<path d="M253.301 13.7188C253.301 13.9639 253.383 14.0456 253.628 14.1273C253.791 14.209 253.955 14.209 254.118 14.209H254.854C255.344 14.209 255.671 14.2908 255.997 14.4542L254.772 13.2285H254.036C253.791 13.2285 253.628 13.2285 253.464 13.3102C253.383 13.3919 253.301 13.5554 253.301 13.7188Z" fill="#228FE0"/>
<path d="M250.44 8.81638L250.604 9.06151H250.686L250.44 8.81638ZM245.946 4.32227L247.335 7.67242V5.71135L245.946 4.32227Z" fill="#228FE0"/>
<path d="M231.973 7.01797H232.137C232.3 7.01797 232.3 7.01797 232.3 7.2631V9.06074H238.183V8.57048C238.674 8.81561 239.409 9.06074 240.389 9.06074H242.841L243.331 7.75337H244.475L244.965 9.06074H249.705V8.24363L248.561 7.09968V7.9985H245.782L245.374 6.69112H242.514L242.024 7.9985H240.471C239.818 7.9985 239 7.83508 238.51 7.34481C238.02 6.85454 237.775 6.20086 237.775 5.13861C237.775 4.3215 237.938 3.50439 238.51 2.8507C238.919 2.36043 239.654 2.19701 240.553 2.19701H241.86V3.42268H240.553C240.063 3.42268 239.818 3.50439 239.491 3.74952C239.246 3.99465 239.082 4.48492 239.082 5.0569C239.082 5.71059 239.164 6.11914 239.491 6.44599C239.736 6.69112 240.063 6.77283 240.471 6.77283H241.043L242.923 2.27872H243.74L242.596 1.13477H240.471C239.572 1.13477 238.837 1.29819 238.183 1.62503V1.13477H234.588V1.62503C234.179 1.29819 233.689 1.13477 233.035 1.13477H219.88L218.981 3.17754L218.082 1.13477H214.487L215.631 2.27872H217.265L218.654 5.30203L219.145 5.7923L220.615 2.19701H222.903V7.9985H221.514V3.50439L220.125 6.77283L222.495 9.14246H231.892L231.973 7.01797ZM235.732 2.19701H237.121V7.9985H235.732V2.19701ZM228.541 3.42268H225.355V4.48492H228.46V5.62888H225.355V6.77283H228.541V7.9985H223.966V2.19701H228.541V3.42268ZM230.829 7.91679H229.44V2.1153H232.545C233.281 2.1153 233.771 2.1153 234.179 2.36043C234.588 2.60557 234.833 3.01412 234.833 3.66781C234.833 4.56663 234.261 5.0569 233.853 5.22032C234.179 5.30203 234.425 5.54717 234.506 5.71059C234.67 6.03743 234.751 6.28257 234.751 6.77283V7.91679H233.362V7.18139C233.362 6.85454 233.362 6.36428 233.117 6.03743C233.035 5.87401 232.79 5.87401 232.3 5.87401H230.829V7.91679Z" fill="#228FE0"/>
<path d="M312.863 16.7239C316.285 16.7239 319.059 13.9499 319.059 10.528C319.059 7.10605 316.285 4.33203 312.863 4.33203C309.441 4.33203 306.667 7.10605 306.667 10.528C306.667 13.9499 309.441 16.7239 312.863 16.7239Z" fill="#EF9122"/>
<path d="M306.667 10.528C306.667 7.07254 309.408 4.33203 312.863 4.33203C316.318 4.33203 319.059 7.07254 319.059 10.528C319.059 13.9834 316.318 16.7239 312.863 16.7239" fill="#F26E21"/>
<path d="M308.574 6.11932C310.957 3.73627 314.889 3.73627 317.272 6.11932C319.655 8.50238 319.655 12.4344 317.272 14.8175" fill="#F44500"/>
<path d="M277.003 4.68947H273.667V16.3664H277.003C278.79 16.3664 280.101 15.8898 281.173 15.0558C282.484 13.9834 283.318 12.3152 283.318 10.528C283.318 7.07252 280.816 4.68947 277.003 4.68947ZM279.743 13.5068C279.028 14.1025 278.075 14.46 276.645 14.46H275.93V6.71506H276.526C277.956 6.71506 278.909 6.95337 279.624 7.66829C280.458 8.3832 280.935 9.45558 280.935 10.528C281.054 11.6003 280.577 12.7919 279.743 13.5068ZM284.39 4.68947H286.654V16.3664H284.39V4.68947ZM292.373 9.21727C290.944 8.74066 290.586 8.3832 290.586 7.78744C290.586 7.07252 291.301 6.47676 292.254 6.47676C292.969 6.47676 293.565 6.71506 294.161 7.42998L295.352 5.88099C294.399 5.04692 293.208 4.57031 291.897 4.57031C289.871 4.57031 288.203 6.00015 288.203 7.90659C288.203 9.57473 288.918 10.2896 291.063 11.1237C292.016 11.4812 292.373 11.6003 292.612 11.8386C293.088 12.0769 293.327 12.5536 293.327 13.0302C293.327 13.9834 292.612 14.6983 291.539 14.6983C290.467 14.6983 289.514 14.1025 289.037 13.1493L287.607 14.5791C288.68 16.1281 289.99 16.8431 291.659 16.8431C294.042 16.8431 295.71 15.2941 295.71 13.0302C295.71 11.0046 294.995 10.1705 292.373 9.21727Z" fill="#595A5B"/>
<path d="M296.421 10.526C296.421 13.9815 299.161 16.6028 302.617 16.6028C303.57 16.6028 304.404 16.3645 305.477 15.8879V13.1474C304.523 14.1006 303.689 14.4581 302.736 14.4581C300.472 14.4581 298.804 12.7899 298.804 10.4069C298.804 8.14298 300.472 6.35569 302.617 6.35569C303.689 6.35569 304.523 6.71315 305.477 7.66637V4.92585C304.523 4.44924 303.689 4.21094 302.617 4.21094C299.281 4.44924 296.421 7.18976 296.421 10.526Z" fill="#3B3D3F"/>
<path d="M324.18 12.5516L321.082 4.6875H318.58L323.465 16.7219H324.776L329.899 4.6875H327.397L324.18 12.5516ZM330.852 16.3645H337.406V14.458H333.235V11.2409H337.287V9.21531H333.235V6.7131H337.406V4.6875H330.852V16.3645Z" fill="black"/>
<path d="M343.836 11.4801C345.623 11.1227 346.576 9.93134 346.576 8.14433C346.576 5.99992 345.028 4.68945 342.407 4.68945H338.952V16.3646H341.215V11.7184H341.573L344.789 16.3646H347.53L343.836 11.4801ZM341.93 10.0505H341.215V6.47646H341.93C343.36 6.47646 344.194 7.07213 344.194 8.26347C344.194 9.45481 343.36 10.0505 341.93 10.0505ZM277.002 4.68945H273.667V16.3646H277.002C278.789 16.3646 280.1 15.888 281.172 15.0541C282.482 13.9819 283.316 12.314 283.316 10.527C283.316 7.07213 280.815 4.68945 277.002 4.68945ZM279.742 13.5054C279.028 14.101 278.074 14.4584 276.645 14.4584H275.93V6.71473H276.526C277.955 6.71473 278.908 6.95299 279.623 7.6678C280.457 8.3826 280.934 9.45481 280.934 10.527C281.053 11.5992 280.576 12.7906 279.742 13.5054ZM284.389 4.68945H286.652V16.3646H284.389V4.68945ZM292.371 9.21654C290.941 8.74 290.584 8.3826 290.584 7.78693C290.584 7.07213 291.298 6.47646 292.251 6.47646C292.966 6.47646 293.562 6.71472 294.158 7.42953L295.349 5.88079C294.396 5.04685 293.204 4.57031 291.894 4.57031C289.869 4.57031 288.201 5.99992 288.201 7.90607C288.201 9.57394 288.916 10.2887 291.06 11.1227C292.013 11.4801 292.371 11.5992 292.609 11.8375C293.085 12.0758 293.324 12.5523 293.324 13.0288C293.324 13.9819 292.609 14.6967 291.537 14.6967C290.464 14.6967 289.511 14.101 289.035 13.148L287.605 14.5776C288.677 16.1263 289.988 16.8411 291.656 16.8411C294.038 16.8411 295.706 15.2924 295.706 13.0288C295.706 11.0035 294.991 10.1696 292.371 9.21654ZM302.735 16.6028C303.688 16.6028 304.522 16.3646 305.594 15.888V13.148C304.641 14.101 303.807 14.4584 302.854 14.4584C300.591 14.4584 298.923 12.7906 298.923 10.4079C298.923 9.21654 299.399 8.26347 300.114 7.42953L298.566 5.88079C297.374 6.95299 296.54 8.62087 296.54 10.4079C296.421 13.9819 299.161 16.6028 302.735 16.6028Z" fill="#595A5B"/>
<path d="M343.838 11.4792C345.625 11.1218 346.578 9.93022 346.578 8.14293C346.578 5.99818 345.029 4.6875 342.408 4.6875H338.952V16.3645H341.216V11.7175H341.574L344.791 16.3645H347.531L343.838 11.4792ZM341.931 10.0494H341.216V6.47479H341.931C343.361 6.47479 344.195 7.07056 344.195 8.26208C344.195 9.45361 343.361 10.0494 341.931 10.0494Z" fill="black"/>
<path d="M335.377 14.4594H333.233V12.3147L330.85 9.93164V16.3659H337.284L335.377 14.4594Z" fill="#3B3D3F"/>
<path d="M326.801 5.87903L324.18 12.5516L321.082 4.6875H318.58L323.465 16.7219H324.776L328.589 7.66632L326.801 5.87903Z" fill="#3B3D3F"/>
</svg>